# xmcd CD database file
#
# Track frame offsets:
#	150
#	16607
#	46907
#	76244
#	103678
#	116800
#	134547
#	169477
#	190252
#	213201
#	238365
#
# Disc length: 3608 seconds
#
# Revision: 0
# Processed by: cddbd v1.5.2PL0 Copyright (c) Steve Scherf et al.
# Submitted via: CDex 1.51
#
DISCID=950e160b
DTITLE=Rolf Zielke und Guilherme Castro, Rolo Rodriguez, Charlie Mariano - Hot impressions
DYEAR=2004
DGENRE=Jazz
TTITLE0=01 New Deal
TTITLE1=02 Corazón
TTITLE2=03 Hot Impressions
TTITLE3=04 African Flower
TTITLE4=05 Waltz for Ka
TTITLE5=06 Rosemary's Baby
TTITLE6=07 My Favourite Things
TTITLE7=08 Rolfing
TTITLE8=09 Lindbergh
TTITLE9=10 Kiez Kids
TTITLE10=11 Baguala
EXTD=YEAR: 2004
EXTT0=
EXTT1=
EXTT2=
EXTT3=
EXTT4=
EXTT5=
EXTT6=
EXTT7=
EXTT8=
EXTT9=
EXTT10=
PLAYORDER=
